# xmcd
#
# Track frame offsets:
# 150
# 16633
# 34836
# 51329
# 67746
# 90256
# 113408
# 142044
# 163603
# 180061
# 203768
# 217185
# 233852
# 255586
#
# Disc length: 3632 seconds
#
# Revision: 1
# Processed by: cddbd v1.5.1PL0 Copyright (c) Steve Scherf et al.
# Submitted via: Easy CD Ripper 1.45
#
DISCID=ac0e2e0e
DTITLE=Black Eyed Peas - Elephunk
DYEAR=2003
DGENRE=Funk
TTITLE0=Hands up
TTITLE1=Black Eyed Peas - Labor Day(It's A Holiday)
TTITLE2=Black Eyed Peas - Let's Get Retarded
TTITLE3=Black Eyed Peas - Hey Mama
TTITLE4=Black Eyed Peas - Shut Up
TTITLE5=Black Eyed Peas - Smells Like Funk
TTITLE6=Black Eyed Peas - Latin Girls
TTITLE7=Black Eyed Peas - Sexy
TTITLE8=Black Eyed Peas - Fly Away
TTITLE9=Black Eyed Peas - The Boogie That Be
TTITLE10=Black Eyed Peas - The APL Song
TTITLE11=Black Eyed Peas - Anxiety
TTITLE12=Black Eyed Peas - Black Eyed Peas Ft. Justin Timb
TTITLE13=Black Eyed Peas - Third Eye
EXTD=
EXTT0=
EXTT1=
EXTT2=
EXTT3=
EXTT4=
EXTT5=
EXTT6=
EXTT7=
EXTT8=
EXTT9=
EXTT10=
EXTT11=
EXTT12=
EXTT13=
PLAYORDER=
